HIERARCHY
ROOT Hips
{
    OFFSET 0.0 0.0 0.0
    CHANNELS 6 Xposition Yposition Zposition Zrotation Xrotation Yrotation
    JOINT LeftHipJoint
    {
        OFFSET 0.1 0.0 0.0
        CHANNELS 3 Zrotation Xrotation Yrotation
        JOINT LeftUpLeg
        {
            OFFSET 119.51910371955489 0.0 0.0
            CHANNELS 3 Zrotation Xrotation Yrotation
            JOINT LeftLeg
            {
                OFFSET 0.0 0.0 -396.3676503351334
                CHANNELS 3 Zrotation Xrotation Yrotation
                JOINT LeftFoot
                {
                    OFFSET 0.0 0.0 -388.14100510682954
                    CHANNELS 3 Zrotation Xrotation Yrotation
                    End Site
                    {
                        OFFSET 0.0 -0.1 0.0
                    }
                }
            }
        }
    }
    JOINT LowerBack
    {
        OFFSET 0.0 0.0 0.1
        CHANNELS 3 Zrotation Xrotation Yrotation
        JOINT Spine
        {
            OFFSET 0.0 0.0 218.450728959386
            CHANNELS 3 Zrotation Xrotation Yrotation
            JOINT Spine1
            {
                OFFSET 0.0 0.0 253.75762839119108
                CHANNELS 3 Zrotation Xrotation Yrotation
                JOINT LeftShoulder
                {
                    OFFSET 0.1 0.0 0.0
                    CHANNELS 3 Zrotation Xrotation Yrotation
                    JOINT LeftArm
                    {
                        OFFSET 144.2825588052999 0.0 0.0
                        CHANNELS 3 Zrotation Xrotation Yrotation
                        JOINT LeftForeArm
                        {
                            OFFSET 255.85071524952946 0.0 0.0
                            CHANNELS 3 Zrotation Xrotation Yrotation
                            JOINT LeftHand
                            {
                                OFFSET 240.35465794716652 0.0 0.0
                                CHANNELS 3 Zrotation Xrotation Yrotation
                                End Site
                                {
                                    OFFSET 0.1 0.0 0.0
                                }
                            }
                        }
                    }
                }
                JOINT Neck
                {
                    OFFSET 0.0 0.0 0.1
                    CHANNELS 3 Zrotation Xrotation Yrotation
                    JOINT Neck1
                    {
                        OFFSET 0.0 0.0 107.80101579396961
                        CHANNELS 3 Zrotation Xrotation Yrotation
                        End Site
                        {
                            OFFSET 0.0 0.0 115.92660566630953
                        }
                    }
                }
                JOINT RightShoulder
                {
                    OFFSET -0.1 0.0 0.0
                    CHANNELS 3 Zrotation Xrotation Yrotation
                    JOINT RightArm
                    {
                        OFFSET -144.2825588052999 0.0 0.0
                        CHANNELS 3 Zrotation Xrotation Yrotation
                        JOINT RightForeArm
                        {
                            OFFSET -255.85071524952946 0.0 0.0
                            CHANNELS 3 Zrotation Xrotation Yrotation
                            JOINT RightHand
                            {
                                OFFSET -240.35465794716652 0.0 0.0
                                CHANNELS 3 Zrotation Xrotation Yrotation
                                End Site
                                {
                                    OFFSET -0.1 0.0 0.0
                                }
                            }
                        }
                    }
                }
            }
        }
    }
    JOINT RightHipJoint
    {
        OFFSET -0.1 0.0 0.0
        CHANNELS 3 Zrotation Xrotation Yrotation
        JOINT RightUpLeg
        {
            OFFSET -119.51910371955489 0.0 0.0
            CHANNELS 3 Zrotation Xrotation Yrotation
            JOINT RightLeg
            {
                OFFSET 0.0 0.0 -396.3676503351334
                CHANNELS 3 Zrotation Xrotation Yrotation
                JOINT RightFoot
                {
                    OFFSET 0.0 0.0 -388.14100510682954
                    CHANNELS 3 Zrotation Xrotation Yrotation
                    End Site
                    {
                        OFFSET 0.0 -0.1 0.0
                    }
                }
            }
        }
    }
}
MOTION
Frames: 10
Frame Time: 0.03333333333333333
0.0 0.0 806.4796326021187 25.482541973936836 2.6349538822493237 3.890654337341976 -3.1805546814635168e-15 -6.896728590703373e-33 2.4848083448933725e-16 -0.10866401416608386 -16.425198064888672 -0.4683193087303247 -0.03295293449597877 22.400068702232208 0.35525317786596483 0.0 0.0 1.987846675914698e-16 -3.1805546814635168e-15 -6.896728590703373e-33 2.4848083448933725e-16 0.006963603614990457 1.067813742763754 -1.9302258408644661 3.0976827909745466 3.8667814495696684e-16 -4.081700194382827e-16 0.0 0.0 9.93923337957349e-17 -48.38999998896921 4.582768565236374 74.18471457510732 -22.73596369257776 7.836469774274381e-16 -3.897696119831471e-15 0.0 0.0 -1.987846675914698e-15 0.0 0.0 9.93923337957349e-17 -5.151363925997242 -6.850129345524464 0.21870506106924428 0.0 0.0 9.93923337957349e-17 32.53128960291176 -2.37666013813849 -66.15644484998822 29.825080680120468 -5.328368172433704e-15 4.7104281151391076e-15 0.0 0.0 0.0 -3.1805546814635168e-15 -6.896728590703373e-33 2.4848083448933725e-16 -0.08463833507633767 -12.561066921694765 -1.9715085464503928 -0.5727399793138478 19.831836961319464 -0.6224959842658496 5.517382872562698e-33 -1.5902773407317582e-15 3.9756933518293955e-16
0.0 0.0 806.4796326021187 25.60364501857595 2.458881748216029 3.8448076255633974 0.0 0.0 3.4787316828507215e-16 -0.09902298210034502 -16.290270224059306 -0.37575126564686456 -0.007830062974563757 22.52166806161262 0.30542035948370105 0.0 0.0 0.0 0.0 0.0 3.4787316828507215e-16 0.0066437634847251355 1.107603595418645 -1.8203485116983373 3.025710975905069 8.053578300498606e-16 3.764381050935232e-16 0.0 0.0 -9.93923337957349e-17 -48.215767723524955 4.837164997430585 74.48553940494844 -22.657101132770283 -7.756944790785754e-16 -1.2319475021563643e-14 0.0 0.0 -1.7890620083232284e-15 0.0 0.0 -9.93923337957349e-17 -5.310247598964743 -6.837243222148773 0.10246147498354999 0.0 0.0 -9.93923337957349e-17 32.21079739461615 -2.207894086151237 -66.31453180507776 30.044221872241728 -1.3936195308323106e-14 -2.846229429238423e-15 0.0 0.0 0.0 0.0 0.0 3.4787316828507215e-16 -0.07668115380779546 -12.369392558224986 -1.8958758937251556 -0.5584577379823996 19.892443532171026 -0.6159879030600239 -5.517382872562698e-33 -1.5902773407317584e-15 -3.975693351829396e-16
0.0 0.0 806.4796326021187 25.774328347134194 2.1866731682852887 3.825408885170562 0.0 0.0 -1.4908850069360235e-16 -0.09004213801987865 -16.130232118763892 -0.30410831918513676 0.00991642289137786 22.54124204493 0.2451364876408623 0.0 0.0 0.0 0.0 0.0 -1.4908850069360235e-16 0.00621406742821075 1.1258805422629352 -1.8295850893691339 3.0302832467762197 1.908310306919307e-16 -3.0332884127753435e-16 -8.620910738379216e-35 -9.93923337957349e-17 -9.93923337957349e-17 -48.100303593769034 5.270791442716349 74.97940081271899 -22.623266576319192 -6.393506550253173e-15 -4.68008359005444e-16 0.0 0.0 -1.0933156717530838e-15 -8.620910738379216e-35 -9.93923337957349e-17 -9.93923337957349e-17 -5.4802889491820155 -6.770305425058928 0.11080949391795397 -8.620910738379216e-35 -9.93923337957349e-17 -9.93923337957349e-17 31.99917175709375 -1.8709402460949545 -66.41755643931855 30.30876736581635 -8.634290732015357e-15 -7.546925772668438e-15 0.0 0.0 0.0 0.0 0.0 -1.4908850069360235e-16 -0.06916788807002705 -12.110686431180007 -1.7878951882522476 -0.532937759724501 20.006437556697833 -0.7141441181301902 0.0 -1.5902773407317582e-15 0.0
0.0 0.0 806.4796326021187 25.85883771674269 1.8675279967933311 3.8174627153742824 0.0 0.0 -2.7332891793827095e-16 -0.08091127862455588 -15.92935118238705 -0.2302885561990634 0.0286279226176332 22.631584428532662 0.1431707749098758 0.0 0.0 1.987846675914698e-16 0.0 0.0 -2.7332891793827095e-16 0.005432073619353749 1.0783337763278302 -1.7804780068512835 3.034997859694959 -7.843312690949022e-16 4.1848696719133685e-16 0.0 0.0 -1.987846675914698e-16 -48.07456989859445 5.851502948302544 75.53450195610733 -22.51529557851419 -1.862735435049496e-15 9.358075092401556e-15 -3.1805546814635176e-15 5.793252016190833e-32 -2.0872390097104334e-15 0.0 0.0 -1.987846675914698e-16 -5.561453936622168 -6.636632619284684 0.05473624141682273 0.0 0.0 -1.987846675914698e-16 31.879493380003833 -1.244328631161547 -66.70652560697688 30.653258105391544 1.6813767830005888e-15 6.134874443760406e-15 0.0 0.0 -1.5902773407317584e-15 0.0 0.0 -2.7332891793827095e-16 -0.06193437777569926 -11.85180271787976 -1.7200359058103496 -0.522251425317235 20.13611963025786 -0.7858028702802367 0.0 0.0 0.0
0.0 0.0 806.4796326021187 25.858076069868538 1.7093493581484251 3.803557627789099 -1.9828094698272196e-33 -1.987846675914698e-16 -1.1430118386509513e-15 -0.06972150087529501 -15.866664789033461 -0.14603750029491358 0.0477635786772928 22.886134403757836 0.024864126734988876 0.0 0.0 -3.975693351829396e-16 -1.9828094698272196e-33 -1.987846675914698e-16 -1.1430118386509513e-15 0.00407726970211041 0.9326623362120628 -1.7510261789812378 3.040310022341517 1.0463083156800637e-16 1.960779670748384e-16 0.0 0.0 0.0 -47.484368258699256 6.333434800063077 76.17058771635683 -22.566526236998833 0.0 0.0 0.0 0.0 1.3914926731402886e-15 0.0 0.0 0.0 -5.669582960548726 -6.615775543336278 0.017780402737136387 0.0 0.0 0.0 31.666869622286104 -0.5251837159209537 -66.98826398001786 31.274776388097116 1.7146260383259213e-15 6.125664851737544e-15 0.0 0.0 -1.5902773407317584e-15 -1.9828094698272196e-33 -1.987846675914698e-16 -1.1430118386509513e-15 -0.05342309727750358 -11.739199910259837 -1.6269638479662532 -0.5067411761396711 20.29492110433282 -0.9156449486390478 0.0 0.0 0.0
0.0 0.0 806.4796326021187 25.91827965306811 1.646810426774546 3.7545806678264606 3.1805546814635164e-15 -8.276074308844047e-33 -2.9817700138720465e-16 -0.057498472839107764 -16.01199445227614 -0.038722463987459786 0.07526393229068593 23.372451780839476 -0.05978755893091934 0.0 0.0 3.975693351829396e-16 3.1805546814635164e-15 -8.276074308844047e-33 -2.9817700138720465e-16 0.0030878630308932495 0.8596779693095538 -1.675289739051051 3.010139411133534 -2.928529727719377e-16 2.065478263365532e-16 0.0 0.0 0.0 -47.04661560351562 6.636241760476874 76.58500288903403 -22.54968833447033 -1.4090898469573955e-15 -9.199570642341875e-15 -3.1805546814635168e-15 3.310429723537619e-32 -1.1927080055488188e-15 0.0 0.0 0.0 -5.678417469065594 -6.6197740331808435 -0.02624316899930389 0.0 0.0 0.0 30.889498920873265 -0.20019329380805145 -67.33566362097478 31.94936659053559 -1.1355601154144816e-14 6.559047173045511e-15 6.3611093629270335e-15 0.0 0.0 3.1805546814635164e-15 -8.276074308844047e-33 -2.9817700138720465e-16 -0.04425369117120801 -11.746457353721615 -1.5694702410634558 -0.5142897044693462 20.73710973163322 -0.9217482048018173 0.0 0.0 0.0
0.0 0.0 806.4796326021187 25.995658576631946 1.5750970264589859 3.7062183787411027 6.465683053784412e-35 -9.93923337957349e-17 7.454425034680117e-17 -0.051577583872601016 -16.17973005671775 0.0922509001752952 0.12512491328478045 23.929225913399616 -0.2217258128855643 0.0 0.0 1.5902773407317582e-15 6.465683053784412e-35 -9.93923337957349e-17 7.454425034680117e-17 0.00262719292154803 0.8206781076753762 -1.6276082639336569 3.0021408244073013 3.0067832191883443e-16 9.154729325163938e-17 0.0 0.0 0.0 -46.857383244311386 7.154173740506875 77.13408948582413 -22.495418769700407 3.101853625291954e-16 -1.559733009626168e-15 0.0 0.0 2.9817700138720468e-15 0.0 0.0 0.0 -5.709970713655235 -6.687148474771351 -0.054668772600697996 0.0 0.0 0.0 30.324153016685393 0.2627177215031442 -67.67779124382587 32.54542929680878 -7.756442146058235e-15 1.883057770191373e-14 0.0 0.0 0.0 6.465683053784412e-35 -9.93923337957349e-17 7.454425034680117e-17 -0.03977500055010866 -11.77645399481833 -1.5518322070610637 -0.5299375155406931 21.238609697751677 -0.9055133588496133 0.0 0.0 -3.975693351829396e-16
0.0 0.0 806.4796326021187 26.046176083469938 1.4098919237657304 3.697562992406024 -5.38806921148701e-34 -9.93923337957349e-17 -6.212020862233431e-16 -0.032849796558119315 -16.202485852142754 0.14433100106720848 0.12090690593178831 24.385753077479457 -0.2798560856335149 0.0 0.0 -3.975693351829396e-16 -5.38806921148701e-34 -9.93923337957349e-17 -6.212020862233431e-16 0.0016166814965202863 0.780037368326721 -1.700362068529964 2.9294151499180323 1.8601678721636933e-16 -5.018804632352417e-16 0.0 0.0 0.0 -46.673133951237105 7.390966842228563 77.53378187138377 -22.267914056565935 2.5065152607427086e-15 3.7348677903271086e-15 0.0 0.0 1.987846675914698e-16 0.0 0.0 0.0 -5.558483500814859 -6.744753435695258 0.05003174807822358 0.0 0.0 0.0 30.007879850036897 0.8923334543747417 -67.79424446189023 33.28291253336117 -1.8217052195996454e-15 -6.0946782047948506e-15 0.0 0.0 0.0 -5.38806921148701e-34 -9.93923337957349e-17 -6.212020862233431e-16 -0.025979114040006353 -11.62541437404458 -1.5252614608970319 -0.5492578953783992 21.378549118779187 -0.9153249394884896 0.0 0.0 3.975693351829396e-16
0.0 0.0 806.4796326021187 26.096892492028385 1.3378206443808622 3.7550379843934985 0.0 0.0 -2.3605679276487037e-16 -0.020335328632856062 -16.335008450520952 0.09742786905243138 0.07990389733998175 24.650182684222944 -0.2542423718295281 0.0 0.0 0.0 0.0 0.0 -2.3605679276487037e-16 0.0008992956423923392 0.688605770805945 -1.8097090515635388 2.8869053673448613 2.9933424500200045e-16 4.2169217797916934e-17 0.0 0.0 4.969616689786745e-17 -46.497454071295984 7.495573158287962 77.82060227934441 -22.09702770311912 -6.626354340849005e-15 1.7339700932689855e-14 -1.3793457181406746e-32 3.1805546814635168e-15 4.969616689786745e-16 0.0 0.0 4.969616689786745e-17 -5.445851374962101 -6.798413572478115 0.13601206555713408 0.0 0.0 4.969616689786745e-17 29.967113543051973 1.4346151133131468 -67.80049953403757 33.9206432572191 -5.156648007286767e-15 4.8978180588750835e-15 0.0 0.0 0.0 0.0 0.0 -2.3605679276487037e-16 -0.01673115833377513 -11.517388839767925 -1.607337530113242 -0.5987978424330547 21.372432948514398 -0.8440959773747769 0.0 0.0 -3.975693351829396e-16
0.0 0.0 806.4796326021187 26.087425329660487 1.3165524676775917 3.795911789677162 0.0 0.0 8.696829207126804e-17 -0.01764849793015092 -16.582247517755686 0.060371261054170865 0.05903274928636137 25.022972517711946 -0.20410497639959393 1.3793457181406746e-33 -1.987846675914698e-16 7.951386703658792e-16 0.0 0.0 8.696829207126804e-17 0.0005322945964528116 0.47210092672239723 -1.9233665128140358 2.767875969127719 -5.028179957918208e-16 -2.3640577118692234e-16 0.0 0.0 -4.969616689786745e-17 -46.398935979648186 7.570402839934134 78.12889885193076 -21.641898074009415 -4.478390882821163e-16 2.343000148742549e-15 0.0 0.0 -2.981770013872047e-16 0.0 0.0 -4.969616689786745e-17 -5.2330698275184995 -6.744242824588926 0.18777445824147498 0.0 0.0 -4.969616689786745e-17 29.80649296737698 2.1206200528365584 -67.98887528483691 34.69984403122889 -7.020149917386059e-15 -1.138918586344948e-15 0.0 0.0 1.5902773407317584e-15 0.0 0.0 8.696829207126804e-17 -0.014814499106740299 -11.668902563465348 -1.6202849506549413 -0.6156542727577017 21.61912758869228 -0.8165253913316013 1.1034765745125397e-32 1.5902773407317584e-15 -7.951386703658792e-16
